<svg xmlns="http://www.w3.org/2000/svg" width="1100" height="700">
<rect width="100%" height="100%" fill="white"/>
<text x="550.0" y="36" text-anchor="middle" font-size="25" font-family="Microsoft YaHei" font-weight="700">2026—2030年游客接待量三情景</text>
<line x1="110" y1="600.0" x2="1055" y2="600.0" stroke="#e5e7eb"/>
<text x="98" y="605.0" text-anchor="end" font-size="16" font-family="Microsoft YaHei">2217.2</text>
<line x1="110" y1="495.0" x2="1055" y2="495.0" stroke="#e5e7eb"/>
<text x="98" y="500.0" text-anchor="end" font-size="16" font-family="Microsoft YaHei">2781.7</text>
<line x1="110" y1="390.0" x2="1055" y2="390.0" stroke="#e5e7eb"/>
<text x="98" y="395.0" text-anchor="end" font-size="16" font-family="Microsoft YaHei">3346.2</text>
<line x1="110" y1="285.0" x2="1055" y2="285.0" stroke="#e5e7eb"/>
<text x="98" y="290.0" text-anchor="end" font-size="16" font-family="Microsoft YaHei">3910.6</text>
<line x1="110" y1="180.0" x2="1055" y2="180.0" stroke="#e5e7eb"/>
<text x="98" y="185.0" text-anchor="end" font-size="16" font-family="Microsoft YaHei">4475.1</text>
<line x1="110" y1="75.0" x2="1055" y2="75.0" stroke="#e5e7eb"/>
<text x="98" y="80.0" text-anchor="end" font-size="16" font-family="Microsoft YaHei">5039.6</text>
<line x1="110" y1="75" x2="110" y2="600" stroke="#374151"/>
<line x1="110" y1="600" x2="1055" y2="600" stroke="#374151"/>
<text x="25" y="350.0" transform="rotate(-90 25 350.0)" text-anchor="middle" font-size="18" font-family="Microsoft YaHei">万人次</text>
<text x="110.0" y="630" text-anchor="middle" font-size="16" font-family="Microsoft YaHei">2026</text>
<text x="346.2" y="630" text-anchor="middle" font-size="16" font-family="Microsoft YaHei">2027</text>
<text x="582.5" y="630" text-anchor="middle" font-size="16" font-family="Microsoft YaHei">2028</text>
<text x="818.8" y="630" text-anchor="middle" font-size="16" font-family="Microsoft YaHei">2029</text>
<text x="1055.0" y="630" text-anchor="middle" font-size="16" font-family="Microsoft YaHei">2030</text>
<polyline points="110.0,519.6 346.2,527.1 582.5,534.6 818.8,542.0 1055.0,549.2" fill="none" stroke="#dc2626" stroke-width="4"/>
<circle cx="110.0" cy="519.6" r="5" fill="#dc2626"/>
<circle cx="346.2" cy="527.1" r="5" fill="#dc2626"/>
<circle cx="582.5" cy="534.6" r="5" fill="#dc2626"/>
<circle cx="818.8" cy="542.0" r="5" fill="#dc2626"/>
<circle cx="1055.0" cy="549.2" r="5" fill="#dc2626"/>
<polyline points="110.0,471.8 346.2,428.5 582.5,381.8 818.8,331.4 1055.0,276.8" fill="none" stroke="#2563eb" stroke-width="4"/>
<circle cx="110.0" cy="471.8" r="5" fill="#2563eb"/>
<circle cx="346.2" cy="428.5" r="5" fill="#2563eb"/>
<circle cx="582.5" cy="381.8" r="5" fill="#2563eb"/>
<circle cx="818.8" cy="331.4" r="5" fill="#2563eb"/>
<circle cx="1055.0" cy="276.8" r="5" fill="#2563eb"/>
<polyline points="110.0,453.4 346.2,385.1 582.5,308.4 818.8,222.4 1055.0,125.8" fill="none" stroke="#16a34a" stroke-width="4"/>
<circle cx="110.0" cy="453.4" r="5" fill="#16a34a"/>
<circle cx="346.2" cy="385.1" r="5" fill="#16a34a"/>
<circle cx="582.5" cy="308.4" r="5" fill="#16a34a"/>
<circle cx="818.8" cy="222.4" r="5" fill="#16a34a"/>
<circle cx="1055.0" cy="125.8" r="5" fill="#16a34a"/>
<line x1="110" y1="660" x2="148" y2="660" stroke="#dc2626" stroke-width="5"/>
<text x="158" y="666" font-size="17" font-family="Microsoft YaHei">宏观下行悲观</text>
<line x1="330" y1="660" x2="368" y2="660" stroke="#2563eb" stroke-width="5"/>
<text x="378" y="666" font-size="17" font-family="Microsoft YaHei">基准</text>
<line x1="550" y1="660" x2="588" y2="660" stroke="#16a34a" stroke-width="5"/>
<text x="598" y="666" font-size="17" font-family="Microsoft YaHei">乐观</text>
</svg>