<svg xmlns="http://www.w3.org/2000/svg" width="760" height="470"><rect width="100%" height="100%" fill="white"/><style>text{font-family:Microsoft YaHei,Arial;font-size:14px}</style><text x="380.0" y="30" text-anchor="middle" font-size="19">旅游收入原对数 R/S-Hurst</text><line x1="85" y1="398.0" x2="725" y2="398.0" stroke="#ddd"/><text x="77" y="403.0" text-anchor="end">0.35</text><line x1="85" y1="313.0" x2="725" y2="313.0" stroke="#ddd"/><text x="77" y="318.0" text-anchor="end">0.74</text><line x1="85" y1="228.0" x2="725" y2="228.0" stroke="#ddd"/><text x="77" y="233.0" text-anchor="end">1.14</text><line x1="85" y1="142.99999999999997" x2="725" y2="142.99999999999997" stroke="#ddd"/><text x="77" y="147.99999999999997" text-anchor="end">1.53</text><line x1="85" y1="58.0" x2="725" y2="58.0" stroke="#ddd"/><text x="77" y="63.0" text-anchor="end">1.93</text><polyline points="85.0,380.8 188.0,333.1 272.2,294.2 343.4,261.3 405.0,232.8 459.4,207.6 508.0,185.1 552.0,164.8 592.2,146.2 629.1,129.1 663.4,113.3 695.2,98.5 725.0,84.8" fill="none" stroke="#D84315" stroke-width="3"/><circle cx="85.0" cy="380.26886502344803" r="5" fill="#1565C0"/><circle cx="188.01699036395593" cy="326.97954102096327" r="5" fill="#1565C0"/><circle cx="272.18800023076994" cy="283.61052502354437" r="5" fill="#1565C0"/><circle cx="343.3535750584333" cy="261.4921414465582" r="5" fill="#1565C0"/><circle cx="404.99999999999994" cy="242.59418777717764" r="5" fill="#1565C0"/><circle cx="459.3760004615401" cy="218.82986427030934" r="5" fill="#1565C0"/><circle cx="508.0169903639561" cy="191.48689043046468" r="5" fill="#1565C0"/><circle cx="552.0181179639352" cy="168.86445989499924" r="5" fill="#1565C0"/><circle cx="592.1880002307701" cy="148.59219761942768" r="5" fill="#1565C0"/><circle cx="629.1407098051495" cy="130.94581214555274" r="5" fill="#1565C0"/><circle cx="663.3535750584333" cy="110.63798748360801" r="5" fill="#1565C0"/><circle cx="695.204990594726" cy="92.03985008224589" r="5" fill="#1565C0"/><circle cx="725.0" cy="75.21881864162512" r="5" fill="#1565C0"/><text x="95" y="83" fill="#333">H=0.9921，R²=0.9945</text><text x="380.0" y="452" text-anchor="middle">ln(尺度)</text><text transform="translate(24 235.0) rotate(-90)" text-anchor="middle">ln(R/S)</text></svg>